
<svg width="52px" height="53px" viewBox="0 14 52 53" version="1.1" xmlns="http://www.w3.org/2000/svg" xmlns:xlink="http://www.w3.org/1999/xlink">
    <!-- Generator: Sketch 3.8.1 (29687) - http://www.bohemiancoding.com/sketch -->
    <desc>Created with Sketch.</desc>
    <defs>
        <linearGradient x1="0%" y1="0%" x2="115.500265%" y2="80.8158559%" id="linearGradient-1">
            <stop stop-color="#EF1D1D" offset="0%"></stop>
            <stop stop-color="#E48222" offset="100%"></stop>
        </linearGradient>
    </defs>
    <path d="M0,21.9920201 C0,17.5781493 3.57417059,14 7.99683765,14 L44.0031624,14 C48.4196938,14 52,17.5804811 52,21.9920201 L52,59.0079799 C52,63.4218507 48.4258294,67 44.0031624,67 L7.99683765,67 C3.58030617,67 0,63.4195189 0,59.0079799 L0,21.9920201 Z M36.5659887,54.7668262 L36.5620136,54.5421831 L36.5456062,53.6149593 C36.5456062,53.6149593 35.5235881,52.9652495 35.5235881,52.6790753 C35.5235881,52.3929011 35.5327931,51.021026 35.5327931,51.021026 L35.5327931,33.6397954 C35.5327931,33.6397954 35.5213526,33.4392375 35.6880946,33.2616208 C35.8548367,33.0840041 36.4313328,32.8511653 36.4313327,32.6332955 C36.4313326,32.4154257 36.4313327,31.4621086 36.4313327,31.4621086 C36.4313327,31.4621086 36.3999688,31.2405922 36.2660174,31.1258532 C36.1320661,31.0111142 35.9537939,30.9025219 35.9537939,30.9025219 L15.615928,30.9025219 C15.615928,30.9025219 15.1400316,31.1256192 15.0635163,31.2938639 C14.9870009,31.4621086 15.0010056,32.3832542 15.0010056,32.3832542 L15.4907436,33.0861568 C15.4907436,33.0861568 15.9796576,33.3104338 15.9796577,33.6697813 C15.9796577,34.0291287 15.9796577,52.3953689 15.9796577,52.3953689 C15.9796577,52.3953689 15.8041863,52.8459822 15.647465,52.9891219 C15.4907436,53.1322615 15.1169979,53.1141055 15.1169979,53.5099236 C15.1169979,53.9057417 15.1169979,54.7843997 15.1169979,54.8252565 C15.1169979,54.8661132 15.12662,54.9858022 15.2223796,55.0776243 C15.3181391,55.1694464 15.5024087,55.3063458 15.5024087,55.3063458 L36.0715005,55.3063458 C36.0715005,55.3063458 36.281538,55.2636648 36.3779236,55.1023058 C36.4743093,54.9409467 36.5659887,54.7668262 36.5659887,54.7668262 Z M17.5441542,28.8091801 C17.5441542,28.8091801 17.9790552,27.8837376 18.5436636,27.5793217 C19.108272,27.2749059 19.7396173,27.0117872 19.7396173,27.0117872 L21.0084892,26.9676261 C21.0084892,26.9676261 20.8246006,25.2984665 22.6581771,23.8721929 C24.4917537,22.4459193 26.6788147,23.1312476 27.0135619,23.3216576 C27.3483091,23.5120676 28.5671523,24.3068747 28.9136824,24.9516449 C29.2602125,25.5964152 29.397743,25.8651696 29.397743,25.8651696 C29.397743,25.8651696 30.7438785,25.6499074 31.3611237,25.7575385 C31.9783689,25.8651697 32.6869774,26.2479297 32.9849282,26.6077779 C33.282879,26.9676262 33.9480276,27.5584422 34.0609292,27.9829614 C34.1738308,28.4074807 34.2714742,28.8511239 34.2714742,28.8511239 L36.5866969,28.8585149 C36.5866969,28.8585149 36.7083874,27.6877843 34.9300548,25.4688285 C33.1517221,23.2498726 30.7103657,23.6414097 30.7103657,23.6414097 C30.7103657,23.6414097 28.7626309,21.3755212 27.2186019,21.1742095 C25.6745729,20.9728978 23.8562557,20.8017044 22.4323724,21.5305469 C21.0084891,22.2593895 20.0582357,23.3445696 20.0582357,23.3445696 C20.0582357,23.3445696 19.7601889,23.710423 19.6038254,24.0579836 C19.447462,24.4055442 19.1785824,24.9771438 19.1785824,24.9771438 C19.1785824,24.9771438 17.7076646,25.1550817 16.733266,26.2774013 C15.7588675,27.3997209 15.5491917,27.7219672 15.4187117,28.0774735 C15.2882317,28.4329798 15.1827661,28.8052075 15.1827661,28.8052075 L17.0271599,28.8087182 L17.5441542,28.8091801 Z M37.6527901,38.2289357 C37.6527901,38.2289357 41.0970563,36.3234096 40.8853571,40.4403238 C40.6736579,44.557238 37.6971685,46.2478052 37.6971685,46.2478052 L37.7123794,49.0743679 C37.7123794,49.0743679 44,45.1152601 44,39.8863517 C44,34.6574434 37.6077844,36.0837002 37.6077844,36.0837002 L37.6527901,38.2289357 Z M30.4917149,37.1675215 C30.4917149,36.5737265 30.9658166,36.0923604 31.5598368,36.0923604 C32.1497442,36.0923604 32.6279587,36.5682962 32.6279587,37.1675215 L32.6279587,49.321682 C32.6279587,49.9154771 32.1538569,50.3968431 31.5598368,50.3968431 C30.9699293,50.3968431 30.4917149,49.9209074 30.4917149,49.321682 L30.4917149,37.1675215 Z M24.937481,37.1675215 C24.937481,36.5737265 25.4115827,36.0923604 26.0056029,36.0923604 C26.5955103,36.0923604 27.0737248,36.5682962 27.0737248,37.1675215 L27.0737248,49.321682 C27.0737248,49.9154771 26.599623,50.3968431 26.0056029,50.3968431 C25.4156954,50.3968431 24.937481,49.9209074 24.937481,49.321682 L24.937481,37.1675215 Z M19.383247,37.1675215 C19.383247,36.5737265 19.8573488,36.0923604 20.4513689,36.0923604 C21.0412764,36.0923604 21.5194909,36.5682962 21.5194909,37.1675215 L21.5194909,49.321682 C21.5194909,49.9154771 21.0453891,50.3968431 20.4513689,50.3968431 C19.8614615,50.3968431 19.383247,49.9209074 19.383247,49.321682 L19.383247,37.1675215 Z" id="square-logo" stroke="none" fill="url(#linearGradient-1)" fill-rule="evenodd"></path>
</svg>